<?xml version="1.0" encoding="UTF-8"?>
<svg id="Ebene_1" data-name="Ebene 1" xmlns="http://www.w3.org/2000/svg" viewBox="0 0 1074.02 379.62">
  <defs>
    <style>
      .cls-1 {
        fill: #009c77;
      }
    </style>
  </defs>
  <path class="cls-1" d="M354.48,55.72h18.56c10.17,0,18.44,8.27,18.44,18.44v55.44c0,10.17,8.26,18.44,18.44,18.44h124.86c60.9,0,110.36,49.34,110.36,110.38v101.86c0,10.17-8.27,18.44-18.44,18.44h-18.56c-10.17,0-18.44-8.27-18.44-18.44v-96.39c0-38.79-25.81-64.98-64.97-64.98h-114.81c-10.17,0-18.44,8.26-18.44,18.44v143.06c0,10.17-8.27,18.44-18.44,18.44h-18.56c-10.17,0-18.44-8.27-18.44-18.44V74.41c0-10.17,8.26-18.44,18.44-18.44v-.25Z"/>
  <path class="cls-1" d="M732.49,170.04v186.43c0,12.21-9.92,22-22,22h-11.19c-12.21,0-22-9.92-22-22v-186.43c0-12.21,9.92-22,22-22h11.19c12.21,0,22,9.92,22,22Z"/>
  <path class="cls-1" d="M1064.61,303.57c5.08,0,8.64,4.58,8.39,9.67-3.69,69.82-71.84,63.33-93.07,66.38h-81.76c-95.87,0-129.05-64.09-129.05-113.94s33.18-116.61,129.05-116.61h40.56c61.92,0,127.28,5.47,134.65,102.12,1.14,14.37,3.05,27.98-17.29,26.45h-225.18c-2.92,0-5.21,2.8-4.45,5.6,7.12,27.98,33.57,47.18,73.36,47.18h42.85c42.34,0,66.12-3.69,73.11-19.58,1.91-4.32,6.36-6.87,11.19-6.87l37.51-.51.13.13ZM1012.98,236.17c2.93,0,5.09-2.67,4.58-5.47-4.19-20.47-30.39-26.32-75.9-26.32h-42.85c-29.88,0-51.24,8.52-63.32,24.54-2.29,3.05,0,7.25,3.81,7.25h173.81-.13Z"/>
  <path class="cls-1" d="M313.8,71.11v28.1c0,6.1-5.09,10.94-11.32,10.94h-106.17c-6.23,0-11.32,4.96-11.32,10.94v246.7c0,6.1-5.09,10.94-11.32,10.94h-33.57c-6.23,0-11.32-4.96-11.32-10.94V121.09c0-6.1-5.08-10.94-11.31-10.94H11.32c-6.23,0-11.32-4.96-11.32-10.94v-28.1c0-6.1,5.09-10.94,11.32-10.94h291.17c6.23,0,11.32,4.96,11.32,10.94Z"/>
  <g id="Ebene_1-2" data-name="Ebene 1-2">
    <g>
      <path class="cls-1" d="M862.32,73.02l-12.76-7.37-12.96,7.48c-.29-26.2-21.7-47.43-47.95-47.43-4,0-8.01.65-12.01,1.86-1.48.43-2.95.95-4.43,1.52-21.22,8.33-41.17,30.19-51.85,44.43-1.46-1.86-2.88-3.77-4.28-5.65-.97-1.29-1.93-2.57-2.91-3.86-2.92-3.94-5.88-7.88-8.9-11.76l.44-.36c12.24-15.1,33.72-37.58,59.49-47.22,1.54-.58,3.11-1.12,4.67-1.59,6.37-1.98,13-3.09,19.78-3.09,40.38,0,73.29,32.7,73.65,73.02Z"/>
      <path class="cls-1" d="M705.05,95.26l-.32.27c-12.52,15.46-34.7,38.59-61.2,47.81-1.48.54-3.02,1.02-4.54,1.44-5.88,1.67-11.96,2.61-18.16,2.61-39.19,0-71.34-30.76-73.54-69.42-.08-1.4-.13-2.82-.13-4.26v-.47l13.14-10.96,12.56,10.64c-.02.26-.02.54-.02.78,0,1.37.06,2.75.19,4.09,2.06,24.57,22.71,43.89,47.79,43.89,3.46,0,6.96-.49,10.43-1.41,1.54-.41,3.09-.9,4.63-1.43,21.61-7.88,42.12-30.2,53.07-44.74,1.37,1.8,2.74,3.6,4.09,5.4h.02c.94,1.26,1.91,2.55,2.86,3.84,3.02,4.01,6.03,8.01,9.11,11.92h0Z"/>
      <path class="cls-1" d="M862.63,73.69v.68c0,1.36-.05,2.7-.11,4.05-2.12,38.73-34.3,69.63-73.55,69.63-1.72,0-3.43-.06-5.14-.21-4.38-.36-8.66-1.12-12.82-2.22-1.56-.39-3.1-.83-4.62-1.36-23.05-7.53-42.3-25.31-57.44-43.8-1.23-1.5-2.42-3.01-3.6-4.53-3.08-3.91-6.1-7.92-9.11-11.92-.96-1.29-1.93-2.57-2.86-3.84h-.02c-1.36-1.8-2.72-3.6-4.09-5.4-5.4-7-10.93-13.87-17.07-20.25-9.48-9.88-20.98-19.92-34.11-24.88-1.48-.57-2.96-1.06-4.48-1.5-4.01-1.13-8.16-1.77-12.46-1.77-26.2,0-47.55,21.12-47.96,47.22l-12.56-10.64-13.15,10.96c.26-40.43,33.18-73.24,73.66-73.24,6.97,0,13.69,1.08,20.15,3.03,1.57.44,3.11.96,4.62,1.52,19.36,7.11,36.17,21.64,49.72,36.89,3.1,3.5,6.06,7.12,8.97,10.82,3.02,3.88,5.98,7.82,8.9,11.76.99,1.27,1.95,2.57,2.91,3.86,1.4,1.87,2.82,3.78,4.28,5.65,7.06,9.26,14.44,18.21,23.12,25.92,8.93,7.96,19.12,15.86,30.57,19.75,1.5.51,3.03.96,4.6,1.32,3.24.76,6.57,1.18,10,1.18,25,0,45.58-19.21,47.75-43.66.15-1.43.21-2.86.21-4.33,0-.19,0-.39-.02-.57l12.96-7.48,12.76,7.37h.02Z"/>
      <path class="cls-1" d="M862.32,73.02v.68c0,1.36-.05,2.7-.11,4.05-2.12,38.73-34.3,69.63-73.55,69.63-1.72,0-3.43-.06-5.14-.21-4.38-.36-8.66-1.12-12.82-2.22-1.56-.39-3.1-.83-4.62-1.36-23.05-7.53-42.3-25.31-57.44-43.8-1.23-1.5-2.42-3.01-3.6-4.53-3.08-3.91-6.1-7.92-9.11-11.92-.96-1.29-1.93-2.57-2.86-3.84h-.02c-1.36-1.8-2.72-3.6-4.09-5.4-5.4-7-10.93-13.87-17.07-20.25-9.48-9.87-20.98-19.92-34.11-24.88-1.48-.57-2.96-1.06-4.48-1.5-4.01-1.13-8.16-1.77-12.46-1.77-26.2,0-47.55,21.12-47.96,47.22l-12.56-10.64-13.14,10.94C547.43,32.81,580.36,0,620.83,0,627.79,0,634.52,1.08,640.98,3.03c1.57.44,3.11.96,4.62,1.52,19.36,7.11,36.17,21.64,49.72,36.89,3.1,3.5,6.06,7.12,8.97,10.82,3.02,3.88,5.98,7.82,8.9,11.76.99,1.27,1.95,2.57,2.91,3.86,1.4,1.87,2.82,3.78,4.28,5.65,7.06,9.26,14.44,18.21,23.13,25.92,8.93,7.96,19.12,15.86,30.57,19.75,1.5.51,3.03.96,4.6,1.32,3.24.76,6.57,1.18,10,1.18,25,0,45.58-19.21,47.75-43.66.15-1.43.21-2.86.21-4.33,0-.19,0-.39-.02-.57l12.96-7.48,12.76,7.37h0Z"/>
    </g>
  </g>
</svg>